<?xml version="1.0" encoding="utf-8"?>
<!-- Generator: Adobe Illustrator 22.1.0, SVG Export Plug-In . SVG Version: 6.00 Build 0)  -->
<svg version="1.1" id="Layer_1" xmlns="http://www.w3.org/2000/svg" xmlns:xlink="http://www.w3.org/1999/xlink" x="0px" y="0px"
	 viewBox="0 0 500 500" style="enable-background:new 0 0 500 500;" xml:space="preserve">
<style type="text/css">
	.st0{fill:none;stroke:#B90100;stroke-width:18.766;stroke-miterlimit:10;}
</style>
<g>
	<path class="st0" d="M319.9,174.9h74.5c6.2,0,12,3.1,15.5,8.2l31.9,57.5h9.4c10.6,0,18.8,7,18.8,20.7V325
		c0,10.4-8.4,18.8-18.8,18.8h-18.8"/>
	<polyline class="st0" points="160.4,109.3 319.9,109.3 319.9,343.8 179.1,343.8 	"/>
	<line class="st0" x1="104.1" y1="343.8" x2="57.1" y2="343.8"/>
	<path class="st0" d="M432.5,353.3c0,20.7-16.8,37.4-37.6,37.4c-20.8,0-37.6-16.8-37.6-37.4c0-20.7,16.8-37.4,37.6-37.4
		C415.6,315.8,432.5,332.6,432.5,353.3z"/>
	<path class="st0" d="M179.3,353.3c0,20.7-16.8,37.4-37.6,37.4s-37.6-16.8-37.6-37.4c0-20.7,16.8-37.4,37.6-37.4
		S179.3,332.6,179.3,353.3z"/>
	<line class="st0" x1="319.9" y1="343.8" x2="357.4" y2="343.8"/>
	<polyline class="st0" points="338.6,250 404.3,250 404.3,240.6 385.6,212.5 	"/>
	<line class="st0" x1="29" y1="221.9" x2="188.5" y2="221.9"/>
	<line class="st0" x1="104.1" y1="165.6" x2="244.8" y2="165.6"/>
	<line class="st0" x1="85.3" y1="165.6" x2="66.5" y2="165.6"/>
	<line class="st0" x1="141.6" y1="109.3" x2="122.8" y2="109.3"/>
</g>
</svg>
