<?xml version="1.0" encoding="utf-8"?>
<!-- Generator: Adobe Illustrator 22.1.0, SVG Export Plug-In . SVG Version: 6.00 Build 0)  -->
<svg version="1.1" id="Layer_1" xmlns="http://www.w3.org/2000/svg" xmlns:xlink="http://www.w3.org/1999/xlink" x="0px" y="0px"
	 viewBox="0 0 500 500" style="enable-background:new 0 0 500 500;" xml:space="preserve">
<style type="text/css">
	.st0{fill:#B90100;}
	.st1{fill:none;stroke:#FFFFFF;stroke-width:18.766;stroke-miterlimit:10;}
	.st2{fill:none;stroke:#B90100;stroke-width:18.766;stroke-miterlimit:10;}
</style>
<path class="st0" d="M432.4,343.8c0,0,33.9,7.2,37.6-18.8s2-50.3,2-50.3s3.7-26.6-10.6-31.4s-19.6-2.7-19.6-2.7
	s-26.4-63.1-39.9-65.7c-13.6-2.6-78.7,0.8-78.7,0.8l-3.3-66.4H160.4l0.9,55l-57.2,0.6l1.1,56l-47.5,4.5l-0.7,120l48.8,0.6
	c0,0,4,51.5,35.1,43c31.1-8.5,38.5-29.4,41.9-42.4c31.7-2.8,123.9-0.6,123.9-0.6l52.6,0.6c0,0,2.8,48,34.5,44.1
	C425.6,386.8,432.4,343.8,432.4,343.8z"/>
<g>
	<path class="st1" d="M319.9,174.9h74.5c6.2,0,12,3.1,15.5,8.2l31.9,57.5h9.4c10.6,0,18.8,7,18.8,20.7V325
		c0,10.4-8.4,18.8-18.8,18.8h-18.8"/>
	<polyline class="st1" points="160.4,165.6 160.4,109.3 319.9,109.3 319.9,343.8 179.1,343.8 	"/>
	<polyline class="st1" points="104.1,343.8 57.1,343.8 57.1,221.9 	"/>
	<path class="st1" d="M432.5,353.3c0,20.7-16.8,37.4-37.6,37.4c-20.8,0-37.6-16.8-37.6-37.4c0-20.7,16.8-37.4,37.6-37.4
		C415.6,315.8,432.5,332.6,432.5,353.3z"/>
	<path class="st1" d="M179.3,353.3c0,20.7-16.8,37.4-37.6,37.4s-37.6-16.8-37.6-37.4c0-20.7,16.8-37.4,37.6-37.4
		S179.3,332.6,179.3,353.3z"/>
	<line class="st1" x1="319.9" y1="343.8" x2="357.4" y2="343.8"/>
	<polyline class="st1" points="338.6,250 404.3,250 404.3,240.6 385.6,212.5 	"/>
	<line class="st1" x1="29" y1="221.9" x2="188.5" y2="221.9"/>
	<polyline class="st1" points="105.3,221.9 104.1,165.6 244.8,165.6 	"/>
	<line class="st2" x1="85.3" y1="165.6" x2="66.5" y2="165.6"/>
	<line class="st2" x1="141.6" y1="109.3" x2="122.8" y2="109.3"/>
</g>
</svg>
