<?xml version="1.0" encoding="utf-8"?>
<!-- Generator: Adobe Illustrator 22.1.0, SVG Export Plug-In . SVG Version: 6.00 Build 0)  -->
<svg version="1.1" id="Layer_1" xmlns="http://www.w3.org/2000/svg" xmlns:xlink="http://www.w3.org/1999/xlink" x="0px" y="0px"
	 viewBox="0 0 500 500" style="enable-background:new 0 0 500 500;" xml:space="preserve">
<style type="text/css">
	.st0{fill:none;stroke:#1A2DC6;stroke-width:18.4255;stroke-linejoin:round;stroke-miterlimit:10;}
	.st1{fill:none;stroke:#1A2DC6;stroke-width:18.4255;stroke-linecap:round;stroke-linejoin:round;stroke-miterlimit:10;}
</style>
<g>
	<polyline class="st0" points="134.3,162 300.2,226.5 466,162 	"/>
	<line class="st1" x1="208" y1="189.6" x2="373.9" y2="125.1"/>
	<polyline class="st0" points="134.3,327.8 134.3,346.2 300.2,410.7 466,346.2 466,152.8 300.2,88.3 134.3,152.8 134.3,217.3 	"/>
	<line class="st0" x1="134.3" y1="281.7" x2="134.3" y2="309.4"/>
	<line class="st0" x1="134.3" y1="235.7" x2="134.3" y2="263.3"/>
	<line class="st0" x1="33" y1="217.3" x2="162" y2="217.3"/>
	<line class="st0" x1="88.3" y1="263.3" x2="198.8" y2="263.3"/>
	<line class="st0" x1="60.6" y1="309.4" x2="171.2" y2="309.4"/>
	<line class="st0" x1="300.2" y1="226.5" x2="300.2" y2="410.7"/>
	<line class="st0" x1="438.4" y1="327.8" x2="419.9" y2="327.8"/>
	<line class="st0" x1="410.7" y1="337" x2="392.3" y2="337"/>
</g>
</svg>
